<?xml version="1.0" standalone="no"?>
<!DOCTYPE svg PUBLIC "-//W3C//DTD SVG 20010904//EN"
 "http://www.w3.org/TR/2001/REC-SVG-20010904/DTD/svg10.dtd">
<svg version="1.0" xmlns="http://www.w3.org/2000/svg"
 width="512.000000pt" height="512.000000pt" viewBox="0 0 512.000000 512.000000"
 preserveAspectRatio="xMidYMid meet">
<metadata>
Created by potrace 1.14, written by Peter Selinger 2001-2017
</metadata>
<g transform="translate(0.000000,512.000000) scale(0.100000,-0.100000)"
fill="#000000" stroke="none">
<path d="M727 5106 c-174 -31 -303 -86 -413 -176 -155 -124 -267 -350 -305
-609 -28 -200 20 -415 135 -601 16 -25 128 -145 251 -267 122 -121 258 -266
302 -321 148 -183 289 -417 333 -552 91 -279 82 -727 -21 -1109 -11 -40 -18
-75 -16 -78 7 -7 148 148 208 230 168 225 275 457 330 717 33 152 33 438 0
590 -87 409 -330 806 -672 1096 -60 50 -94 88 -109 120 -53 109 -3 221 112
252 54 15 93 6 178 -37 329 -169 635 -244 984 -240 196 2 422 34 536 77 23 9
20 11 -33 21 -178 38 -412 141 -543 239 -44 33 -122 106 -174 163 -282 306
-432 413 -665 474 -84 22 -318 28 -418 11z"/>
<path d="M4067 5110 c-119 -21 -242 -69 -347 -135 -25 -15 -146 -129 -270
-253 -300 -300 -466 -431 -711 -561 -116 -61 -191 -86 -339 -112 -121 -21
-385 -29 -505 -15 -178 21 -297 43 -424 77 -40 11 -75 18 -78 16 -7 -8 151
-150 242 -217 226 -167 462 -273 733 -327 133 -27 422 -24 562 6 403 85 792
322 1087 662 94 109 145 142 219 141 77 -2 140 -53 161 -132 15 -57 5 -98 -56
-220 -67 -135 -130 -301 -160 -420 -47 -191 -55 -267 -56 -490 0 -261 8 -333
57 -515 l21 -79 23 87 c76 284 195 503 350 646 327 298 444 454 509 677 63
215 36 516 -64 719 -107 215 -301 355 -591 425 -96 23 -289 34 -363 20z"/>
<path d="M4052 3655 c-237 -252 -394 -549 -463 -875 -32 -152 -32 -439 0 -590
85 -403 320 -788 661 -1085 110 -96 142 -145 142 -221 0 -90 -85 -168 -183
-167 -34 1 -71 14 -149 53 -251 126 -496 199 -755 225 -183 18 -473 -1 -643
-44 -130 -33 -133 -35 -66 -50 104 -23 258 -78 353 -125 172 -86 190 -101 491
-410 269 -277 506 -381 824 -362 454 26 719 246 827 687 18 76 23 121 23 234
-1 123 -4 151 -27 228 -33 107 -85 215 -137 282 -21 27 -128 138 -236 245
-264 262 -368 389 -501 610 -103 172 -132 250 -164 430 -30 173 -30 437 2 637
14 91 47 250 65 312 8 29 13 55 11 57 -2 3 -36 -30 -75 -71z"/>
<path d="M901 2524 c-22 -97 -69 -233 -116 -332 -82 -173 -144 -251 -370 -461
-224 -210 -324 -359 -387 -578 -30 -104 -32 -343 -5 -473 69 -321 256 -524
576 -624 247 -78 478 -68 687 29 118 54 158 87 384 314 295 297 484 444 732
571 169 87 385 129 648 124 194 -3 388 -30 580 -79 52 -13 96 -23 97 -21 7 6
-155 153 -228 208 -514 385 -1107 461 -1667 215 -270 -119 -513 -306 -773
-595 -67 -74 -112 -96 -185 -90 -63 5 -107 35 -136 91 -35 68 -29 122 24 224
116 224 204 500 224 703 3 30 7 61 10 69 6 17 6 337 0 371 -2 14 -7 52 -11 85
-8 71 -38 214 -58 269 l-13 39 -13 -59z"/>
</g>
</svg>
